# File created by Blade
# Date/Time:  Wed Jan 21 16:20:01 2015
# Frame Rate: 120.000 fps
#------------------------------------------------------
:FULLY-SPECIFIED
:DEGREES
210
root 18.707799 35.957224 -18.744782 -187.425521 6.158406 -181.641399
Spine 13.327252 22.650056 2.788008
Head 26.746387 -13.706265 -0.374199
LeftShoulder -9.953871 -25.245823 -1.163352
LeftArm -20.298562 -2.436356 -44.983243
LeftForeArm -1.516284 -0.000000 3.050506
LeftHand -6.471289 0.000000 -1.181640
LeftHandThumb1 -26.253704 0.000000 33.147579
RightShoulder 2.327816 -11.324344 8.102715
RightArm 56.050379 -23.514686 16.441914
RightForeArm -45.799078 -0.000000 53.330343
RightHand 5.064836 -0.000000 26.243327
RightHandThumb1 -24.326973 -0.000000 -32.862282
LeftUpLeg -77.757994 -23.182678 -12.545619
LeftLeg 94.988688 -0.000000 -0.000000
LeftFoot 22.493584 22.766027 5.015992
LeftToeBase -163.134693 -0.000000 0.000000
RightUpLeg 8.182487 -3.128007 6.559912
RightLeg -0.148247 -0.000000 0.000000
RightFoot -16.717096 -20.842281 13.125067
RightToeBase 20.183297 -0.000000 -0.000000
211
root 18.713138 35.954573 -18.770277 -187.509722 6.605386 -181.615273
Spine 13.304544 22.986492 2.842650
Head 26.785496 -13.562099 -0.272306
LeftShoulder -10.021960 -25.222537 -1.066306
LeftArm -20.206681 -2.501206 -44.780418
LeftForeArm -1.463854 0.000000 3.016410
LeftHand -6.466028 -0.000000 -1.395929
LeftHandThumb1 -26.253704 0.000000 33.147579
RightShoulder 2.116368 -11.513747 8.248429
RightArm 55.573491 -23.284991 16.357310
RightForeArm -46.466359 -0.000000 53.998452
RightHand 5.250602 0.000000 25.940252
RightHandThumb1 -24.326973 -0.000000 -32.862282
LeftUpLeg -77.716462 -23.130797 -12.493755
LeftLeg 95.044828 -0.000000 -0.000000
LeftFoot 22.635792 22.702671 5.014175
LeftToeBase -163.245690 -0.000000 0.000000
RightUpLeg 8.310192 -2.984771 6.606369
RightLeg -0.156827 -0.000000 0.000000
RightFoot -16.653751 -20.640666 12.996976
RightToeBase 20.257292 -0.000000 -0.000000
212
root 18.715316 35.951779 -18.797985 -187.575947 7.032727 -181.605673
Spine 13.231075 23.287471 2.859947
Head 26.856093 -13.388859 -0.174784
LeftShoulder -10.084795 -25.189712 -0.973646
LeftArm -20.145003 -2.548635 -44.540854
LeftForeArm -1.496515 0.000000 3.004010
LeftHand -6.468591 -0.000000 -1.691476
LeftHandThumb1 -26.253704 0.000000 33.147579
RightShoulder 1.942373 -11.734380 8.373189
RightArm 55.065866 -23.084209 16.255077
RightForeArm -46.869539 0.000000 54.721117
RightHand 5.317486 -0.000000 25.573189
RightHandThumb1 -24.326973 -0.000000 -32.862282
LeftUpLeg -77.655506 -23.111669 -12.469803
LeftLeg 95.101709 -0.000000 -0.000000
LeftFoot 22.668979 22.583595 5.094162
LeftToeBase -163.121979 -0.000000 0.000000
RightUpLeg 8.432423 -2.855951 6.629011
RightLeg -0.174510 -0.000000 0.000000
RightFoot -16.598164 -20.415273 12.903386
RightToeBase 20.151675 -0.000000 -0.000000
213
root 18.717601 35.948450 -18.827229 -187.646694 7.457863 -181.588780
Spine 13.162012 23.577731 2.881504
Head 26.924609 -13.220724 -0.078539
LeftShoulder -10.149606 -25.170638 -0.848629
LeftArm -20.107871 -2.492524 -44.363535
LeftForeArm -1.542551 -0.000000 2.979706
LeftHand -6.457515 -0.000000 -1.886030
LeftHandThumb1 -26.253704 0.000000 33.147579
RightShoulder 1.761423 -11.944034 8.505239
RightArm 54.552177 -22.920209 16.089250
RightForeArm -47.120515 -0.000000 55.507670
RightHand 5.351256 -0.000000 25.228773
RightHandThumb1 -24.326973 -0.000000 -32.862282
LeftUpLeg -77.640778 -23.216291 -12.373529
LeftLeg 95.168072 -0.000000 -0.000000
LeftFoot 22.823824 22.532030 4.936599
LeftToeBase -163.274983 -0.000000 0.000000
RightUpLeg 8.577532 -2.711147 6.669698
RightLeg -0.235231 -0.000000 0.000000
RightFoot -16.534359 -20.272106 12.809364
RightToeBase 20.136116 -0.000000 -0.000000
